<?xml version="1.0" encoding="UTF-8" standalone="no"?>
<!-- Generator: Adobe Illustrator 16.0.0, SVG Export Plug-In . SVG Version: 6.00 Build 0)  -->

<svg
   xmlns:dc="http://purl.org/dc/elements/1.1/"
   xmlns:cc="http://creativecommons.org/ns#"
   xmlns:rdf="http://www.w3.org/1999/02/22-rdf-syntax-ns#"
   xmlns:svg="http://www.w3.org/2000/svg"
   xmlns="http://www.w3.org/2000/svg"
   xmlns:sodipodi="http://sodipodi.sourceforge.net/DTD/sodipodi-0.dtd"
   xmlns:inkscape="http://www.inkscape.org/namespaces/inkscape"
   version="1.1"
   id="Livello_1"
   inkscape:version="0.91 r13725"
   sodipodi:docname="logo-university-white.svg"
   x="0px"
   y="0px"
   width="300px"
   height="55.16px"
   viewBox="0 0 300 55.16"
   enable-background="new 0 0 300 55.16"
   xml:space="preserve"><metadata
     id="metadata32"><rdf:RDF><cc:Work
         rdf:about=""><dc:format>image/svg+xml</dc:format><dc:type
           rdf:resource="http://purl.org/dc/dcmitype/StillImage" /></cc:Work></rdf:RDF></metadata><defs
     id="defs30" /><sodipodi:namedview
     id="namedview43"
     inkscape:window-width="1871"
     inkscape:window-x="20"
     inkscape:pageopacity="0"
     inkscape:current-layer="Livello_1"
     inkscape:pageshadow="2"
     inkscape:window-y="43"
     inkscape:window-height="840"
     inkscape:window-maximized="0"
     inkscape:guide-bbox="true"
     borderopacity="1"
     bordercolor="#666666"
     inkscape:zoom="3.5261058"
     inkscape:cx="139.57219"
     inkscape:cy="27.58"
     guidetolerance="10"
     showgrid="false"
     showguides="true"
     gridtolerance="10"
     objecttolerance="10"
     pagecolor="#ffffff"><sodipodi:guide
       id="guide4175"
       position="100.26738,28.074866"
       orientation="0,1" /></sodipodi:namedview><g
     id="g3"
     transform="translate(0,0.504)"
     enable-background="new    "
     style="fill:#ffffff;fill-opacity:1"><path
       id="path5"
       inkscape:connector-curvature="0"
       fill="#174873"
       d="M81.494,23.366c0-5.288,0-6.263-0.07-7.376   c-0.069-1.183-0.417-1.774-1.183-1.948c-0.383-0.104-0.835-0.139-1.252-0.139c-0.348,0-0.557-0.07-0.557-0.349   c0-0.208,0.278-0.278,0.835-0.278c1.322,0,3.514,0.104,4.523,0.104c0.87,0,2.922-0.104,4.244-0.104c0.452,0,0.73,0.07,0.73,0.278   c0,0.278-0.208,0.349-0.557,0.349c-0.348,0-0.626,0.034-1.043,0.104c-0.939,0.175-1.218,0.766-1.288,1.983   c-0.069,1.113-0.069,2.088-0.069,7.376v6.124c0,3.373,0,6.123,0.139,7.619c0.104,0.938,0.348,1.563,1.392,1.703   c0.487,0.07,1.252,0.141,1.774,0.141c0.382,0,0.557,0.104,0.557,0.277c0,0.244-0.278,0.348-0.661,0.348   c-2.296,0-4.488-0.104-5.427-0.104c-0.8,0-2.992,0.104-4.384,0.104c-0.452,0-0.695-0.104-0.695-0.348   c0-0.174,0.139-0.277,0.557-0.277c0.521,0,0.939-0.07,1.252-0.141c0.696-0.14,0.905-0.73,1.009-1.738   c0.174-1.461,0.174-4.211,0.174-7.584V23.366z"
       style="fill:#ffffff;fill-opacity:1" /><path
       id="path7"
       inkscape:connector-curvature="0"
       fill="#174873"
       d="M100.001,16.687c-0.8-1.914-1.392-2.297-2.644-2.645   c-0.522-0.139-1.079-0.139-1.357-0.139c-0.313,0-0.417-0.104-0.417-0.313c0-0.278,0.383-0.313,0.905-0.313   c1.844,0,3.827,0.104,5.044,0.104c0.87,0,2.54-0.104,4.279-0.104c0.417,0,0.8,0.07,0.8,0.313c0,0.243-0.208,0.313-0.521,0.313   c-0.557,0-1.079,0.034-1.357,0.243c-0.244,0.174-0.348,0.417-0.348,0.73c0,0.452,0.313,1.427,0.8,2.679l5.984,15.794h0.139   c1.496-3.828,6.019-15.029,6.854-17.326c0.174-0.452,0.313-0.975,0.313-1.287c0-0.278-0.139-0.557-0.453-0.661   c-0.417-0.14-0.939-0.174-1.392-0.174c-0.313,0-0.591-0.035-0.591-0.278c0-0.278,0.313-0.349,0.974-0.349   c1.74,0,3.201,0.104,3.653,0.104c0.591,0,2.227-0.104,3.27-0.104c0.452,0,0.73,0.07,0.73,0.313c0,0.243-0.208,0.313-0.557,0.313   c-0.348,0-1.079,0-1.705,0.417c-0.452,0.313-0.974,0.904-1.914,3.131c-1.357,3.271-2.296,5.149-4.175,9.429   c-2.227,5.079-3.862,8.872-4.627,10.61c-0.905,2.02-1.113,2.576-1.6,2.576c-0.453,0-0.661-0.488-1.322-2.123L100.001,16.687z"
       style="fill:#ffffff;fill-opacity:1" /><path
       id="path9"
       inkscape:connector-curvature="0"
       fill="#174873"
       d="M134.372,23.366c0-5.288,0-6.263-0.069-7.376   c-0.07-1.183-0.348-1.739-1.496-1.983c-0.278-0.069-0.87-0.104-1.357-0.104c-0.383,0-0.591-0.07-0.591-0.313   c0-0.243,0.243-0.313,0.765-0.313c0.939,0,1.948,0.035,2.818,0.035c0.905,0.035,1.705,0.069,2.192,0.069   c1.113,0,8.037,0,8.698-0.034c0.661-0.07,1.218-0.14,1.496-0.209c0.174-0.035,0.382-0.14,0.557-0.14   c0.174,0,0.208,0.14,0.208,0.313c0,0.243-0.174,0.661-0.278,2.262c-0.035,0.348-0.104,1.878-0.174,2.296   c-0.035,0.174-0.104,0.383-0.348,0.383c-0.243,0-0.313-0.174-0.313-0.487c0-0.243-0.035-0.835-0.208-1.252   c-0.244-0.627-0.592-1.044-2.331-1.253c-0.592-0.069-4.245-0.14-4.94-0.14c-0.174,0-0.243,0.104-0.243,0.349v8.802   c0,0.243,0.035,0.383,0.243,0.383c0.766,0,4.767,0,5.566-0.07c0.835-0.069,1.357-0.174,1.67-0.521   c0.244-0.278,0.383-0.452,0.557-0.452c0.139,0,0.244,0.069,0.244,0.278s-0.139,0.766-0.278,2.54   c-0.035,0.695-0.139,2.086-0.139,2.333c0,0.276,0,0.659-0.313,0.659c-0.244,0-0.313-0.139-0.313-0.313   c-0.035-0.348-0.035-0.801-0.14-1.252c-0.174-0.695-0.661-1.218-1.948-1.356c-0.661-0.069-4.105-0.104-4.94-0.104   c-0.174,0-0.208,0.14-0.208,0.348v2.75c0,1.183-0.035,4.383,0,5.394c0.069,2.399,0.626,2.922,4.175,2.922   c0.904,0,2.365,0,3.27-0.418c0.905-0.418,1.322-1.148,1.565-2.574c0.07-0.383,0.139-0.521,0.383-0.521   c0.278,0,0.278,0.277,0.278,0.625c0,0.801-0.278,3.166-0.452,3.863c-0.244,0.904-0.557,0.904-1.879,0.904   c-2.609,0-4.522-0.07-6.019-0.105c-1.496-0.068-2.575-0.104-3.618-0.104c-0.383,0-1.148,0-1.983,0.035   c-0.8,0-1.705,0.067-2.4,0.067c-0.453,0-0.696-0.104-0.696-0.349c0-0.174,0.14-0.276,0.557-0.276c0.522,0,0.939-0.069,1.253-0.142   c0.695-0.139,0.87-0.903,1.009-1.911c0.174-1.461,0.174-4.211,0.174-7.41v-6.127H134.372z"
       style="fill:#ffffff;fill-opacity:1" /><path
       id="path11"
       inkscape:connector-curvature="0"
       fill="#174873"
       d="M162.341,23.366c0-5.288,0-6.263-0.069-7.376   c-0.069-1.183-0.348-1.739-1.496-1.983c-0.277-0.069-0.868-0.104-1.356-0.104c-0.383,0-0.591-0.07-0.591-0.313   c0-0.243,0.242-0.313,0.765-0.313c1.845,0,4.036,0.104,4.769,0.104c1.182,0,3.826-0.104,4.904-0.104   c2.19,0,4.522,0.209,6.401,1.496c0.974,0.661,2.365,2.436,2.365,4.767c0,2.574-1.078,4.94-4.593,7.793   c3.097,3.896,5.496,6.994,7.55,9.15c1.948,2.018,3.375,2.262,3.896,2.364c0.383,0.07,0.695,0.105,0.975,0.105   c0.277,0,0.418,0.104,0.418,0.277c0,0.279-0.243,0.348-0.661,0.348h-3.306c-1.949,0-2.817-0.174-3.723-0.66   c-1.496-0.801-2.818-2.436-4.766-5.115c-1.393-1.912-2.992-4.279-3.445-4.801c-0.174-0.209-0.383-0.242-0.626-0.242l-3.026-0.07   c-0.174,0-0.279,0.07-0.279,0.277v0.488c0,3.234,0,5.984,0.176,7.445c0.104,1.008,0.313,1.772,1.355,1.912   c0.521,0.07,1.287,0.141,1.705,0.141c0.278,0,0.418,0.104,0.418,0.277c0,0.244-0.244,0.348-0.695,0.348   c-2.02,0-4.594-0.104-5.114-0.104c-0.661,0-2.854,0.104-4.244,0.104c-0.453,0-0.694-0.104-0.694-0.348   c0-0.174,0.139-0.277,0.557-0.277c0.521,0,0.938-0.07,1.252-0.141c0.695-0.14,0.869-0.904,1.009-1.912   c0.174-1.461,0.174-4.211,0.174-7.41v-6.124H162.341z M166.445,26.114c0,0.383,0.07,0.521,0.313,0.626   c0.729,0.244,1.773,0.349,2.644,0.349c1.393,0,1.845-0.14,2.471-0.592c1.044-0.766,2.053-2.366,2.053-5.219   c0-4.94-3.27-6.366-5.322-6.366c-0.869,0-1.496,0.034-1.844,0.139c-0.244,0.069-0.314,0.209-0.314,0.487V26.114L166.445,26.114z"
       style="fill:#ffffff;fill-opacity:1" /><path
       id="path13"
       inkscape:connector-curvature="0"
       fill="#174873"
       d="M192.154,39.16c-0.557-0.242-0.662-0.416-0.662-1.182   c0-1.914,0.141-4.002,0.175-4.56c0.034-0.521,0.14-0.903,0.417-0.903c0.313,0,0.348,0.313,0.348,0.592   c0,0.453,0.141,1.184,0.314,1.775c0.766,2.573,2.816,3.514,4.975,3.514c3.131,0,4.662-2.123,4.662-3.967   c0-1.705-0.521-3.306-3.41-5.566l-1.6-1.252c-3.828-2.992-5.148-5.428-5.148-8.245c0-3.827,3.199-6.575,8.035-6.575   c2.262,0,3.723,0.348,4.627,0.591c0.313,0.069,0.487,0.174,0.487,0.418c0,0.452-0.14,1.461-0.14,4.175   c0,0.766-0.104,1.043-0.383,1.043c-0.242,0-0.349-0.208-0.349-0.626c0-0.313-0.174-1.392-0.903-2.296   c-0.521-0.661-1.531-1.705-3.793-1.705c-2.574,0-4.14,1.496-4.14,3.584c0,1.6,0.8,2.817,3.688,5.01l0.975,0.73   c4.209,3.166,5.705,5.567,5.705,8.872c0,2.019-0.766,4.418-3.27,6.054c-1.74,1.112-3.688,1.428-5.533,1.428   C195.215,40.066,193.65,39.822,192.154,39.16L192.154,39.16z"
       style="fill:#ffffff;fill-opacity:1" /><path
       id="path15"
       inkscape:connector-curvature="0"
       fill="#174873"
       d="M220.297,23.366c0-5.288,0-6.263-0.07-7.376   c-0.067-1.183-0.416-1.774-1.182-1.948c-0.383-0.104-0.836-0.139-1.253-0.139c-0.349,0-0.558-0.07-0.558-0.349   c0-0.208,0.279-0.278,0.836-0.278c1.322,0,3.514,0.104,4.522,0.104c0.869,0,2.923-0.104,4.244-0.104   c0.451,0,0.729,0.07,0.729,0.278c0,0.278-0.209,0.349-0.557,0.349s-0.627,0.034-1.045,0.104c-0.938,0.175-1.217,0.766-1.287,1.983   c-0.068,1.113-0.068,2.088-0.068,7.376v6.124c0,3.373,0,6.123,0.14,7.619c0.104,0.938,0.349,1.563,1.394,1.703   c0.485,0.07,1.252,0.141,1.772,0.141c0.383,0,0.558,0.104,0.558,0.277c0,0.244-0.279,0.348-0.66,0.348   c-2.297,0-4.488-0.104-5.429-0.104c-0.801,0-2.991,0.104-4.385,0.104c-0.451,0-0.694-0.104-0.694-0.348   c0-0.174,0.139-0.277,0.557-0.277c0.521,0,0.938-0.07,1.252-0.141c0.697-0.14,0.904-0.73,1.01-1.738   c0.174-1.461,0.174-4.211,0.174-7.584V23.366L220.297,23.366z"
       style="fill:#ffffff;fill-opacity:1" /><path
       id="path17"
       inkscape:connector-curvature="0"
       fill="#174873"
       d="M246.631,15.225l-5.184,0.14   c-2.018,0.069-2.854,0.243-3.375,1.009c-0.348,0.521-0.521,0.939-0.592,1.218c-0.068,0.278-0.174,0.417-0.383,0.417   c-0.242,0-0.313-0.174-0.313-0.557c0-0.557,0.661-3.722,0.729-4.001c0.105-0.452,0.209-0.66,0.418-0.66   c0.277,0,0.627,0.348,1.496,0.417c1.008,0.104,2.33,0.174,3.479,0.174h13.776c1.113,0,1.879-0.104,2.4-0.174   c0.521-0.104,0.801-0.174,0.939-0.174c0.244,0,0.276,0.209,0.276,0.73c0,0.73-0.104,3.131-0.104,4.036   c-0.034,0.348-0.104,0.557-0.313,0.557c-0.279,0-0.348-0.174-0.383-0.696l-0.035-0.383c-0.07-0.904-1.01-1.878-4.105-1.948   l-4.383-0.104V29.49c0,3.199,0,5.949,0.174,7.443c0.104,0.975,0.313,1.739,1.355,1.879c0.488,0.07,1.254,0.141,1.775,0.141   c0.383,0,0.557,0.104,0.557,0.277c0,0.244-0.279,0.348-0.662,0.348c-2.295,0-4.486-0.104-5.461-0.104   c-0.801,0-2.992,0.104-4.385,0.104c-0.451,0-0.695-0.104-0.695-0.348c0-0.174,0.139-0.277,0.557-0.277   c0.521,0,0.939-0.07,1.252-0.141c0.697-0.14,0.906-0.904,1.011-1.912c0.174-1.461,0.174-4.211,0.174-7.41V15.225H246.631z"
       style="fill:#ffffff;fill-opacity:1" /><path
       id="path19"
       inkscape:connector-curvature="0"
       fill="#174873"
       d="M276.758,30.568c0-1.879-0.35-2.646-0.801-3.654   c-0.244-0.557-4.906-8.21-6.123-10.02c-0.869-1.287-1.74-2.156-2.4-2.539c-0.453-0.244-1.045-0.452-1.461-0.452   c-0.279,0-0.522-0.07-0.522-0.313c0-0.209,0.243-0.313,0.661-0.313c0.628,0,3.234,0.104,4.384,0.104   c0.729,0,2.157-0.104,3.723-0.104c0.349,0,0.521,0.104,0.521,0.313c0,0.209-0.241,0.243-0.764,0.383   c-0.313,0.069-0.488,0.348-0.488,0.626s0.175,0.696,0.418,1.183c0.486,1.044,5.357,9.429,5.914,10.402   c0.349-0.835,4.732-8.488,5.22-9.567c0.348-0.765,0.485-1.356,0.485-1.809c0-0.348-0.139-0.73-0.729-0.87   c-0.313-0.069-0.625-0.139-0.625-0.348c0-0.243,0.174-0.313,0.59-0.313c1.147,0,2.263,0.104,3.271,0.104   c0.767,0,3.062-0.104,3.724-0.104c0.383,0,0.625,0.07,0.625,0.278c0,0.244-0.276,0.349-0.66,0.349c-0.348,0-1.01,0.139-1.53,0.417   c-0.73,0.348-1.113,0.766-1.879,1.705c-1.148,1.392-6.019,9.567-6.646,11.063c-0.521,1.253-0.521,2.331-0.521,3.479v2.852   c0,0.557,0,2.02,0.104,3.48c0.07,1.008,0.383,1.772,1.428,1.912c0.486,0.07,1.252,0.141,1.738,0.141   c0.383,0,0.557,0.104,0.557,0.277c0,0.244-0.277,0.348-0.73,0.348c-2.19,0-4.383-0.104-5.321-0.104   c-0.869,0-3.063,0.104-4.351,0.104c-0.485,0-0.766-0.068-0.766-0.348c0-0.174,0.176-0.277,0.557-0.277   c0.488,0,0.906-0.07,1.22-0.141c0.694-0.14,1.008-0.904,1.077-1.912c0.105-1.461,0.105-2.924,0.105-3.48v-2.852H276.758z"
       style="fill:#ffffff;fill-opacity:1" /></g><path
     fill="#174873"
     d="M16.43,2.202C3.222,7.446,0,4.191,0,4.191v49.523c0,0,3.295,3.269,16.503-1.979  C29.715,46.494,35,52.132,35,53.171v-0.123V3.637C35,2.598,29.642-3.045,16.43,2.202z M30.027,14.409  c-0.383,0-0.592,0.034-1.009,0.104c-0.939,0.175-1.218,0.766-1.288,1.983c-0.069,1.113-0.069,2.088-0.069,7.376v3.723  c0,3.862-0.383,7.968-3.305,10.472c-2.47,2.123-4.975,2.506-7.236,2.506c-1.844,0-5.184-0.105-7.724-2.4  C7.622,36.57,6.3,33.996,6.3,28.952v-5.08H6.299c0-5.288,0-6.263-0.069-7.376c-0.07-1.183-0.348-1.739-1.496-1.983  c-0.278-0.069-0.87-0.104-1.357-0.104c-0.383,0-0.591-0.07-0.591-0.313c0-0.243,0.244-0.313,0.765-0.313  c1.844,0,4.036,0.104,5.08,0.104c0.835,0,3.027-0.104,4.279-0.104c0.522,0,0.765,0.07,0.765,0.313c0,0.243-0.208,0.313-0.557,0.313  c-0.383,0-0.591,0.034-1.009,0.104c-0.939,0.175-1.218,0.766-1.287,1.983c-0.07,1.113-0.07,2.088-0.07,7.376v4.87  c0,5.044,1.009,7.167,2.714,8.558c1.565,1.287,3.166,1.429,4.349,1.429c1.531,0,3.41-0.488,4.801-1.879  c1.913-1.914,2.018-5.045,2.018-8.629v-4.349c0-5.288,0-6.263-0.069-7.376c-0.07-1.183-0.348-1.739-1.496-1.983  c-0.278-0.069-0.87-0.104-1.252-0.104c-0.383,0-0.591-0.07-0.591-0.313c0-0.243,0.243-0.313,0.73-0.313  c1.774,0,3.966,0.104,4.001,0.104c0.417,0,2.609-0.104,3.966-0.104c0.487,0,0.73,0.07,0.73,0.313  C30.653,14.339,30.445,14.409,30.027,14.409z"
     id="path16"
     style="fill:#ffffff;fill-opacity:1" /><path
     fill="#174873"
     d="M55.569,2.202C42.358-3.045,36,2.598,36,3.637v49.411v0.123c0-1.039,6.285-6.677,19.496-1.437  C68.705,56.982,73,53.714,73,53.714V4.191C73,4.191,68.778,7.446,55.569,2.202z M67.979,14.407c-0.348,0-0.626,0-1.043,0.104  c-0.974,0.279-1.252,1.01-1.287,2.958l-0.383,21.953c0,0.766-0.139,1.078-0.452,1.078c-0.383,0-0.8-0.383-1.183-0.766  c-2.191-2.088-6.645-6.646-10.263-10.229c-3.792-3.758-7.654-8.002-8.28-8.663h-0.104l0.382,14.511  c0.069,2.713,0.522,3.616,1.218,3.86c0.591,0.209,1.252,0.244,1.809,0.244c0.382,0,0.591,0.067,0.591,0.276  c0,0.279-0.313,0.349-0.8,0.349c-2.261,0-3.653-0.104-4.314-0.104c-0.313,0-1.948,0.104-3.757,0.104  c-0.452,0-0.765-0.035-0.765-0.349c0-0.209,0.208-0.276,0.557-0.276c0.452,0,1.078-0.035,1.565-0.174  c0.904-0.279,1.044-1.289,1.079-4.314l0.313-20.492c0-0.696,0.104-1.183,0.452-1.183c0.383,0,0.696,0.452,1.287,1.078  c0.418,0.452,5.706,6.019,10.785,11.063c2.366,2.365,7.063,7.375,7.654,7.931h0.174l-0.348-15.62  c-0.035-2.123-0.348-2.783-1.183-3.132c-0.521-0.208-1.356-0.208-1.844-0.208c-0.417,0-0.557-0.104-0.557-0.313  c0-0.278,0.383-0.313,0.904-0.313c1.81,0,3.479,0.104,4.21,0.104c0.383,0,1.705-0.104,3.409-0.104c0.452,0,0.8,0.035,0.8,0.313  C68.605,14.303,68.397,14.407,67.979,14.407z"
     id="path18"
     style="fill:#ffffff;fill-opacity:1" /><g
     id="g20"
     style="fill:#ffffff;fill-opacity:1"><path
       fill="#174873"
       d="M286.43,50.514c-0.146-0.104-0.307-0.152-0.578-0.166c-0.125-0.009-0.193-0.009-0.299-0.009   c-0.027,0-0.042,0.015-0.042,0.05v1.649c0,0.459,0.021,0.576,0.244,0.668c0.188,0.076,0.349,0.082,0.509,0.082   c0.313,0,0.842-0.166,0.842-0.892C287.105,51.466,286.959,50.882,286.43,50.514z"
       id="path22"
       style="fill:#ffffff;fill-opacity:1" /><path
       fill="#174873"
       d="M274.88,49.143c-0.021,0-0.035,0.033-0.042,0.063l-0.641,1.703c-0.008,0.028,0,0.049,0.027,0.049h1.281   c0.034,0,0.042-0.021,0.034-0.041l-0.625-1.711C274.907,49.177,274.9,49.143,274.88,49.143z"
       id="path24"
       style="fill:#ffffff;fill-opacity:1" /><path
       fill="#174873"
       d="M285.561,50.035c0.063,0.014,0.166,0.02,0.326,0.02c0.229,0,0.383-0.027,0.502-0.131   c0.18-0.146,0.284-0.398,0.284-0.738c0-0.467-0.271-1.078-0.87-1.078c-0.097,0-0.158,0-0.229,0.015   c-0.049,0.014-0.063,0.041-0.063,0.117v1.718h-0.001C285.511,50.014,285.532,50.027,285.561,50.035z"
       id="path26"
       style="fill:#ffffff;fill-opacity:1" /><path
       fill="#174873"
       d="M257.559,45.791v9.369h35.401v-9.369H257.559z M266.344,52.914c-0.041,0.154-0.076,0.189-0.438,0.189   c-0.502,0-0.863-0.017-1.178-0.021c-0.313-0.014-0.563-0.021-0.849-0.021c-0.075,0-0.229,0-0.396,0.008   c-0.16,0-0.342,0.015-0.48,0.015c-0.09,0-0.139-0.021-0.139-0.069c0-0.035,0.027-0.056,0.111-0.056c0.104,0,0.188-0.015,0.25-0.026   c0.14-0.029,0.174-0.183,0.201-0.384c0.034-0.293,0.034-0.842,0.034-1.481v-1.226c0-1.059,0-1.252-0.015-1.475   c-0.014-0.238-0.068-0.351-0.299-0.398c-0.056-0.014-0.139-0.02-0.229-0.02c-0.077,0-0.118-0.015-0.118-0.063   s0.05-0.063,0.152-0.063c0.327,0,0.766,0.02,0.952,0.02c0.169,0,0.677-0.02,0.947-0.02c0.098,0,0.146,0.014,0.146,0.063   s-0.042,0.063-0.125,0.063c-0.077,0-0.188,0.006-0.271,0.02c-0.188,0.035-0.242,0.154-0.256,0.398   c-0.016,0.223-0.016,0.416-0.016,1.475v1.224h0.001c0,0.891,0,1.371,0.146,1.496c0.119,0.104,0.299,0.151,0.842,0.151   c0.369,0,0.641-0.006,0.813-0.194c0.084-0.091,0.168-0.285,0.183-0.416c0.007-0.063,0.021-0.105,0.076-0.105   c0.049,0,0.056,0.035,0.056,0.119C266.448,52.191,266.398,52.713,266.344,52.914z M277.629,53.083c-0.25,0-0.758,0-1.314-0.015   c-0.125-0.008-0.209-0.008-0.209-0.057c0-0.041,0.027-0.055,0.099-0.063c0.049-0.014,0.097-0.076,0.063-0.16l-0.558-1.434   c-0.015-0.033-0.035-0.049-0.069-0.049h-1.553c-0.035,0-0.049,0.016-0.063,0.057l-0.377,0.953   c-0.068,0.174-0.104,0.342-0.104,0.424c0,0.125,0.063,0.217,0.278,0.217h0.104c0.083,0,0.104,0.014,0.104,0.055   c0,0.057-0.04,0.07-0.116,0.07c-0.224,0-0.522-0.021-0.738-0.021c-0.075,0-0.459,0.021-0.819,0.021   c-0.092,0-0.133-0.014-0.133-0.07c0-0.041,0.026-0.055,0.084-0.055c0.063,0,0.159-0.008,0.215-0.014   c0.319-0.043,0.453-0.279,0.592-0.627l1.746-4.314c0.084-0.201,0.125-0.277,0.195-0.277c0.063,0,0.104,0.063,0.174,0.224   c0.166,0.383,1.279,3.166,1.726,4.223c0.265,0.627,0.466,0.726,0.612,0.761c0.104,0.02,0.209,0.026,0.291,0.026   c0.057,0,0.092,0.006,0.092,0.056C277.949,53.07,277.887,53.083,277.629,53.083z M286.104,53.102c-0.084,0-0.285-0.016-0.487-0.021   c-0.209-0.015-0.417-0.021-0.522-0.021c-0.076,0-0.229,0-0.396,0.008c-0.16,0-0.341,0.014-0.479,0.014   c-0.091,0-0.14-0.021-0.14-0.07c0-0.035,0.028-0.055,0.11-0.055c0.104,0,0.188-0.014,0.252-0.027   c0.139-0.029,0.174-0.182,0.201-0.383c0.034-0.293,0.034-0.842,0.034-1.482v-1.226h-0.001c0-1.059,0-1.252-0.014-1.475   c-0.016-0.238-0.069-0.351-0.301-0.398c-0.055-0.014-0.174-0.021-0.271-0.021c-0.075,0-0.116-0.014-0.116-0.063   s0.047-0.063,0.151-0.063c0.369,0,0.808,0.02,0.946,0.02c0.341,0,0.611-0.02,0.849-0.02c1.261,0,1.481,0.674,1.481,1.043   c0,0.57-0.326,0.912-0.709,1.217c0.57,0.195,1.267,0.689,1.267,1.504C287.96,52.328,287.382,53.102,286.104,53.102z"
       id="path28"
       style="fill:#ffffff;fill-opacity:1" /></g></svg>