<?xml version="1.0" encoding="UTF-8" standalone="no"?>
<svg
   xmlns:dc="http://purl.org/dc/elements/1.1/"
   xmlns:cc="http://creativecommons.org/ns#"
   xmlns:rdf="http://www.w3.org/1999/02/22-rdf-syntax-ns#"
   xmlns:svg="http://www.w3.org/2000/svg"
   xmlns="http://www.w3.org/2000/svg"
   xmlns:sodipodi="http://sodipodi.sourceforge.net/DTD/sodipodi-0.dtd"
   xmlns:inkscape="http://www.inkscape.org/namespaces/inkscape"
   version="1.1"
   viewBox="0 0 510.349 510.349"
   enable-background="new 0 0 510.349 510.349"
   id="svg2"
   inkscape:version="0.91 r13725"
   sodipodi:docname="icon-award-color.svg">
  <metadata
     id="metadata18">
    <rdf:RDF>
      <cc:Work
         rdf:about="">
        <dc:format>image/svg+xml</dc:format>
        <dc:type
           rdf:resource="http://purl.org/dc/dcmitype/StillImage" />
        <dc:title />
      </cc:Work>
    </rdf:RDF>
  </metadata>
  <defs
     id="defs16" />
  <sodipodi:namedview
     pagecolor="#ffffff"
     bordercolor="#666666"
     borderopacity="1"
     objecttolerance="10"
     gridtolerance="10"
     guidetolerance="10"
     inkscape:pageopacity="0"
     inkscape:pageshadow="2"
     inkscape:window-width="1356"
     inkscape:window-height="694"
     id="namedview14"
     showgrid="false"
     inkscape:zoom="0.46242865"
     inkscape:cx="-335.18685"
     inkscape:cy="255.1745"
     inkscape:window-x="399"
     inkscape:window-y="225"
     inkscape:window-maximized="0"
     inkscape:current-layer="g4" />
  <g
     id="g4"
     style="fill:#a3a3a3;fill-opacity:1">
    <path
       d="m394.548,359.759c2.648-1.479 5.113-3.297 7.349-5.534 11.927-11.926 11.969-30.375 12.01-48.215 0.026-11.375 0.054-23.137 3.453-31.334 3.175-7.657 10.877-15.307 19.032-23.406 12.921-12.833 26.282-26.103 26.282-43.771 0-17.667-13.361-30.938-26.282-43.771-8.154-8.099-15.856-15.749-19.032-23.406-3.399-8.197-3.426-19.958-3.452-31.333-0.041-17.84-0.083-36.288-12.009-48.214-11.926-11.927-30.375-11.969-48.215-12.01-11.375-0.026-23.137-0.054-31.334-3.453-7.657-3.175-15.307-10.877-23.406-19.032-12.832-12.919-26.102-26.28-43.77-26.28-17.667,0-30.938,13.361-43.771,26.282-8.099,8.154-15.749,15.856-23.406,19.032-8.197,3.399-19.959,3.426-31.333,3.452-17.84,0.041-36.287,0.083-48.213,12.009-11.927,11.926-11.97,30.374-12.011,48.215-0.026,11.375-0.053,23.136-3.452,31.333-3.175,7.657-10.877,15.307-19.032,23.406-12.921,12.833-26.282,26.103-26.282,43.771 0,17.667 13.361,30.938 26.282,43.771 8.154,8.099 15.856,15.749 19.031,23.406 3.399,8.197 3.426,19.958 3.452,31.333 0.041,17.84 0.083,36.288 12.009,48.214 2.238,2.238 4.705,4.057 7.355,5.537l-48.119,83.339c-1.261,2.183-1.34,4.854-0.211,7.108 1.128,2.254 3.314,3.791 5.818,4.089l57.305,6.834 34.572,46.211c1.421,1.899 3.65,3.007 6.004,3.007 0.148,0 0.297-0.004 0.446-0.014 2.517-0.149 4.79-1.553 6.05-3.736l56.611-98.054c6.35,3.923 13.205,6.455 20.894,6.455 7.688,0 14.544-2.532 20.893-6.455l56.612,98.054c1.26,2.184 3.534,3.587 6.05,3.736 0.149,0.01 0.297,0.014 0.446,0.014 2.354,0 4.583-1.108 6.004-3.007l34.572-46.211 57.305-6.834c2.503-0.299 4.689-1.835 5.818-4.089 1.129-2.254 1.05-4.925-0.211-7.108l-48.114-83.341zm-224.182,129.489l-29.684-39.677c-1.229-1.644-3.079-2.711-5.117-2.955l-49.203-5.868 43.923-76.073c8.347,1.516 17.439,1.538 26.378,1.558 7.133,0.017 14.418,0.034 20.882,0.883l-31.009,53.706c-2.071,3.587-0.842,8.174 2.745,10.245 1.181,0.682 2.471,1.006 3.743,1.006 2.592,0 5.113-1.345 6.502-3.751l32.577-56.421c0.014-0.025 0.024-0.05 0.038-0.075 6.286,3.832 12.623,10.208 19.261,16.892 3.569,3.593 7.172,7.22 10.894,10.585l-51.93,89.945zm51.68-111.101c-8.784-8.844-17.868-17.99-28.302-22.317-10.94-4.537-24.211-4.567-37.045-4.597-15.477-0.036-30.096-0.07-37.644-7.617-7.547-7.547-7.58-22.165-7.615-37.642-0.029-12.834-0.06-26.105-4.596-37.045-4.327-10.435-13.473-19.518-22.317-28.303-10.743-10.67-21.852-21.703-21.852-33.127 0-11.425 11.109-22.458 21.853-33.128 8.844-8.784 17.99-17.868 22.317-28.302 4.537-10.94 4.567-24.211 4.597-37.045 0.036-15.477 0.069-30.096 7.617-37.644 7.547-7.547 22.165-7.58 37.641-7.615 12.834-0.029 26.105-0.06 37.045-4.596 10.435-4.327 19.518-13.473 28.302-22.317 10.67-10.743 21.703-21.852 33.127-21.852 11.425,0 22.458,11.109 33.128,21.853 8.784,8.844 17.868,17.99 28.302,22.317 10.94,4.537 24.211,4.567 37.045,4.597 15.477,0.036 30.096,0.07 37.643,7.617 7.547,7.547 7.581,22.165 7.616,37.642 0.029,12.834 0.06,26.105 4.596,37.045 4.327,10.435 13.473,19.518 22.317,28.303 10.743,10.67 21.852,21.703 21.852,33.127 0,11.425-11.109,22.458-21.853,33.128-8.844,8.784-17.99,17.868-22.317,28.302-4.537,10.94-4.567,24.211-4.597,37.045-0.036,15.477-0.07,30.096-7.617,37.643-7.547,7.547-22.165,7.581-37.642,7.616-12.834,0.029-26.105,0.06-37.045,4.596-10.435,4.327-19.518,13.473-28.303,22.317-10.667,10.743-21.7,21.852-33.125,21.852-11.424,0-22.458-11.109-33.128-21.853zm152.738,68.47c-2.038,0.243-3.888,1.311-5.117,2.955l-29.684,39.677-51.931-89.946c3.721-3.364 7.324-6.991 10.893-10.584 7.151-7.2 13.952-14.042 20.717-17.732 0.127,0.31 0.268,0.617 0.44,0.915l32.577,56.421c1.389,2.406 3.91,3.751 6.502,3.751 1.272,0 2.563-0.325 3.743-1.006 3.587-2.071 4.816-6.658 2.745-10.245l-31.127-53.91c6.016-0.645 12.64-0.663 19.141-0.677 8.941-0.021 18.034-0.042 26.383-1.559l43.92,76.073-49.202,5.867z"
       id="path6"
       style="fill:#a3a3a3;fill-opacity:1" />
    <path
       d="m390.674,207.5c0-74.715-60.785-135.5-135.5-135.5s-135.5,60.785-135.5,135.5 60.785,135.5 135.5,135.5 135.5-60.785 135.5-135.5zm-135.5,120.5c-66.444,0-120.5-54.056-120.5-120.5s54.056-120.5 120.5-120.5 120.5,54.056 120.5,120.5-54.056,120.5-120.5,120.5z"
       id="path8"
       style="fill:#90cbde;fill-opacity:1" />
    <path
       d="m255.174,104c-57.07,0-103.5,46.43-103.5,103.5 0,21.84 6.723,42.725 19.441,60.397 2.419,3.362 7.107,4.126 10.468,1.707 3.362-2.419 4.126-7.106 1.707-10.468-10.87-15.104-16.616-32.959-16.616-51.635 0-48.799 39.701-88.5 88.5-88.5s88.5,39.701 88.5,88.5-39.701,88.5-88.5,88.5c-15.563,0-30.863-4.093-44.249-11.837-3.584-2.074-8.173-0.849-10.248,2.736-2.074,3.585-0.85,8.173 2.736,10.248 15.665,9.063 33.563,13.854 51.76,13.854 57.07,0 103.5-46.43 103.5-103.5s-46.428-103.502-103.499-103.502z"
       id="path10"
       style="fill:#90cbde;fill-opacity:1" />
    <path
       d="m311.674,207.5c0,4.142 3.358,7.5 7.5,7.5s7.5-3.358 7.5-7.5c0-39.425-32.075-71.5-71.5-71.5-4.142,0-7.5,3.358-7.5,7.5s3.358,7.5 7.5,7.5c31.155,0 56.5,25.346 56.5,56.5z"
       id="path12"
       style="fill:#90cbde;fill-opacity:1" />
  </g>
</svg>
