<?xml version="1.0" encoding="UTF-8" standalone="no"?>
<svg
   xmlns:dc="http://purl.org/dc/elements/1.1/"
   xmlns:cc="http://creativecommons.org/ns#"
   xmlns:rdf="http://www.w3.org/1999/02/22-rdf-syntax-ns#"
   xmlns:svg="http://www.w3.org/2000/svg"
   xmlns="http://www.w3.org/2000/svg"
   xmlns:sodipodi="http://sodipodi.sourceforge.net/DTD/sodipodi-0.dtd"
   xmlns:inkscape="http://www.inkscape.org/namespaces/inkscape"
   version="1.1"
   viewBox="0 0 511 511"
   enable-background="new 0 0 511 511"
   id="svg142"
   inkscape:version="0.91 r13725"
   sodipodi:docname="icon-support-color.svg">
  <metadata
     id="metadata150">
    <rdf:RDF>
      <cc:Work
         rdf:about="">
        <dc:format>image/svg+xml</dc:format>
        <dc:type
           rdf:resource="http://purl.org/dc/dcmitype/StillImage" />
        <dc:title />
      </cc:Work>
    </rdf:RDF>
  </metadata>
  <defs
     id="defs148" />
  <sodipodi:namedview
     pagecolor="#ffffff"
     bordercolor="#666666"
     borderopacity="1"
     objecttolerance="10"
     gridtolerance="10"
     guidetolerance="10"
     inkscape:pageopacity="0"
     inkscape:pageshadow="2"
     inkscape:window-width="1553"
     inkscape:window-height="781"
     id="namedview146"
     showgrid="false"
     inkscape:zoom="0.73646837"
     inkscape:cx="82.48125"
     inkscape:cy="452.78051"
     inkscape:window-x="20"
     inkscape:window-y="65"
     inkscape:window-maximized="0"
     inkscape:current-layer="svg142" />
  <path
     d="m503.5,248h-8.628c-1.869-61.161-26.557-118.389-70.02-161.852-43.463-43.463-100.691-68.151-161.852-70.02v-8.628c0-4.142-3.358-7.5-7.5-7.5s-7.5,3.358-7.5,7.5v8.628c-61.161,1.869-118.389,26.557-161.852,70.02-43.463,43.463-68.151,100.691-70.02,161.852h-8.628c-4.142,0-7.5,3.358-7.5,7.5s3.358,7.5 7.5,7.5h8.628c1.869,61.161 26.557,118.389 70.02,161.852 43.463,43.463 100.691,68.151 161.852,70.02v8.628c0,4.142 3.358,7.5 7.5,7.5s7.5-3.358 7.5-7.5v-8.628c61.161-1.869 118.389-26.557 161.852-70.02 43.463-43.463 68.151-100.691 70.02-161.852h8.628c4.142,0 7.5-3.358 7.5-7.5s-3.358-7.5-7.5-7.5zm-67.919-126.617l-64.108,64.107c-11.378-18.778-27.185-34.585-45.963-45.963l64.107-64.108c8.634,6.458 16.867,13.574 24.629,21.335 7.761,7.762 14.877,15.995 21.335,24.629zm-72.061,187.476c-0.398,0.574-0.703,1.19-0.922,1.831-11.493,22.213-29.695,40.415-51.909,51.909-0.642,0.219-1.26,0.526-1.836,0.925-16.092,7.98-34.206,12.476-53.353,12.476-19.148,0-37.263-4.497-53.356-12.479-0.574-0.398-1.191-0.704-1.832-0.923-22.214-11.493-40.416-29.696-51.909-51.909-0.219-0.642-0.526-1.259-0.924-1.833-7.982-16.093-12.479-34.208-12.479-53.356 0-19.146 4.496-37.259 12.476-53.351 0.399-0.576 0.707-1.195 0.926-1.838 11.494-22.214 29.696-40.416 51.91-51.909 0.641-0.219 1.257-0.525 1.831-0.923 16.094-7.982 34.209-12.479 53.357-12.479 19.147,0 37.261,4.496 53.353,12.477 0.575,0.399 1.193,0.706 1.836,0.925 22.214,11.493 40.416,29.696 51.909,51.909 0.219,0.642 0.526,1.26 0.925,1.835 7.98,16.093 12.477,34.207 12.477,53.354 0,19.149-4.497,37.265-12.48,53.359zm-108.02,171.141c-43.803,0-85.683-12.474-121.608-35.718l65.47-65.47c17.113,7.822 36.125,12.188 56.138,12.188 20.013,0 39.024-4.365 56.137-12.187l65.47,65.47c-35.925,23.243-77.804,35.717-121.607,35.717zm0-449c43.802,0 85.682,12.474 121.607,35.717l-65.47,65.471c-17.113-7.822-36.124-12.188-56.137-12.188-20.013,0-39.025,4.365-56.138,12.188l-65.47-65.47c35.925-23.244 77.805-35.718 121.608-35.718zm-158.746,65.755c7.761-7.761 15.994-14.876 24.627-21.334l64.107,64.108c-18.777,11.378-34.585,27.186-45.962,45.964l-64.108-64.107c6.459-8.636 13.575-16.87 21.336-24.631zm-30.038,37.139l65.471,65.47c-7.822,17.113-12.187,36.124-12.187,56.136 0,20.013 4.366,39.025 12.188,56.138l-65.47,65.47c-23.244-35.925-35.718-77.805-35.718-121.608 0-43.802 12.473-85.681 35.716-121.606zm8.705,255.725l64.107-64.108c11.378,18.777 27.184,34.583 45.961,45.961l-64.107,64.107c-8.633-6.458-16.866-13.573-24.627-21.334-7.761-7.76-14.876-15.993-21.334-24.626zm338.825,24.626c-7.761,7.761-15.995,14.876-24.628,21.335l-64.107-64.107c18.777-11.377 34.583-27.184 45.961-45.96l64.107,64.108c-6.458,8.632-13.573,16.864-21.333,24.624zm30.035-37.135l-65.469-65.47c7.822-17.114 12.188-36.126 12.188-56.14 0-20.013-4.365-39.024-12.187-56.137l65.471-65.47c23.242,35.925 35.716,77.805 35.716,121.607 0,43.804-12.474,85.685-35.719,121.61z"
     id="path144"
     style="fill:#a3a3a3;fill-opacity:1" />
  <path
     style="fill:#90cbde;fill-opacity:1"
     d="m 255.3472,-0.13415673 c -4.142,0 -7.5,3.35800203 -7.5,7.50000003 l 0,8.6289067 c -45.1169,1.378713 -87.84674,15.307445 -124.73653,39.897359 l 10.95845,10.732961 c 35.9181,-23.231143 77.48766,-35.759226 121.27808,-35.759226 43.73483,0 85.85331,12.676988 121.74145,35.851361 11.10035,-10.700971 0,0 11.10035,-10.700971 C 351.21765,31.273299 308.11352,17.378029 262.8472,15.99475 l 0,-8.6289067 c 0,-4.141998 -3.358,-7.50000003 -7.5,-7.50000003 z m 0,119.99999673 c -19.82621,0 -38.66793,4.28866 -55.65625,11.97461 l 11.51758,11.40625 c 13.67532,-5.40502 28.56515,-8.38086 44.13867,-8.38086 16.39692,0 32.03067,3.30621 46.29102,9.26563 l 0.12304,-0.44922 11.30469,-10.27539 -3.36328,-2.14063 c -16.64842,-7.32126 -35.03229,-11.40039 -54.35547,-11.40039 z m -199.977629,3.96322 c -24.27446,36.71969 -38.026146,79.22902 -39.395416,124.03678 l -8.6269499,0 c -4.142,0 -7.49999997,3.358 -7.49999997,7.5 0,4.142 3.35799997,7.5 7.49999997,7.5 l 8.6269499,0 c 1.38013,45.16301 15.21792,88.17299 39.85547,125.08789 l 10.815336,-10.92295 c -23.21828,-35.91119 -35.797756,-77.8871 -35.797756,-121.66494 0,-43.58493 12.773498,-85.62282 35.795058,-121.42841 z m 400.405369,0.31998 -11.56297,9.72542 c 22.79922,35.68492 35.63523,78.12444 35.63523,121.49138 0,43.44602 -12.636,85.89705 -35.5163,121.62473 l 11.32153,10.10588 c 24.10671,-36.62815 37.70165,-79.58784 39.06586,-124.23061 l 8.62891,0 c 4.14201,0 7.5,-3.358 7.5,-7.5 0,-4.142 -3.35799,-7.5 -7.5,-7.5 l -8.62891,0 c -1.36301,-44.60453 -14.87541,-87.10989 -38.94335,-123.7168 z M 132.0347,199.22912 c -7.822,17.113 -12.1875,36.12472 -12.1875,56.13672 0,19.41858 4.12011,37.89008 11.50977,54.60352 l 0.68164,-0.70313 13.45312,-4.13867 0.11524,-0.0371 c -6.90213,-15.16832 -10.75977,-32.00228 -10.75977,-49.72461 0,-16.1577 3.21195,-31.57355 9.00781,-45.66601 z m 246.64844,0.0527 -11.51367,11.2207 c 5.58855,13.87433 8.67773,29.01236 8.67773,44.86328 0,18.57619 -4.24217,36.17521 -11.7832,51.9043 l 14.5957,4.23633 c 7.822,-17.114 12.1875,-36.12663 12.1875,-56.14063 0,-19.99256 -4.35711,-38.98459 -12.16406,-56.08398 z m -77.57227,167.53515 c -14.11841,5.82104 -29.56832,9.04883 -45.76367,9.04883 -15.96504,0 -31.20816,-3.13507 -45.16406,-8.80078 l -10.97461,11.61328 c 17.113,7.822 36.12567,12.1875 56.13867,12.1875 20.013,0 39.02372,-4.3655 56.13672,-12.1875 z m 75.77735,77.375 c -35.91019,23.2154 -77.76503,35.67383 -121.54102,35.67383 -43.59524,0 -85.645,-12.42054 -121.45575,-35.45259 l -10.35675,10.98384 c 36.74144,24.31519 79.46513,37.97132 124.3125,39.3418 l 0,8.62695 c 0,4.142 3.358,7.5 7.5,7.5 4.142,0 7.5,-3.358 7.5,-7.5 l 0,-8.62695 c 45.02109,-1.37579 88.20317,-15.07067 125.04028,-39.56304 z"
     id="path4133"
     inkscape:connector-curvature="0"
     sodipodi:nodetypes="sscccscccsssccsccccsccssscccsccccscccssscccsccccsccccsccsccsccscccscccsssccc" />
</svg>
