<?xml version="1.0" encoding="iso-8859-1"?>
<svg xmlns="http://www.w3.org/2000/svg" xmlns:xlink="http://www.w3.org/1999/xlink" version="1.1" viewBox="0 0 511 511" enable-background="new 0 0 511 511" width="512px" height="512px">
  <g>
    <path d="m395.501,496h-96.5v-64.5c0-0.169-0.014-0.334-0.025-0.5h0.525c12.958,0 23.5-10.542 23.5-23.5v-16.5h56.5c4.142,0 7.5-3.358 7.5-7.5s-3.358-7.5-7.5-7.5h-64-77.26c-39.646,0-72.627-29.72-75.083-67.66-1.315-20.313 5.587-39.636 19.436-54.41 13.347-14.24 31.271-22.295 50.669-22.874 7.859,16.693 23.793,28.851 42.738,31.423v25.021c0,8.547 6.953,15.5 15.5,15.5h0.5v32.5c0,8.547 6.953,15.5 15.5,15.5h32c8.547,0 15.5-6.953 15.5-15.5v-32.5h0.5c8.547,0 15.5-6.953 15.5-15.5v-184c0-8.547-6.953-15.5-15.5-15.5h-0.5v-42.945c4.765-2.647 8-7.728 8-13.555v-16c0-8.547-6.953-15.5-15.5-15.5h-48c-8.547,0-15.5,6.953-15.5,15.5v16c0,5.827 3.235,10.908 8,13.555v42.945h-0.5c-8.547,0-15.5,6.953-15.5,15.5v49.021c-15.919,2.161-29.716,11.085-38.379,23.788-0.673-0.198-1.384-0.309-2.121-0.309-35.195,0-67.962,14.029-92.264,39.501-24.289,25.459-36.751,58.896-35.091,94.151 1.553,32.992 16.1,63.705 40.96,86.481 19.917,18.247 44.671,29.84 71.123,33.562-0.143,0.579-0.228,1.181-0.228,1.805v64.5h-96.5c-4.142,0-7.5,3.358-7.5,7.5s3.358,7.5 7.5,7.5h272c4.142,0 7.5-3.358 7.5-7.5s-3.358-7.5-7.5-7.5zm-55.5-160.5c0,0.276-0.224,0.5-0.5,0.5h-32c-0.276,0-0.5-0.224-0.5-0.5v-32.5h33v32.5zm-41-320c0-0.276 0.224-0.5 0.5-0.5h48c0.276,0 0.5,0.224 0.5,0.5v16c0,0.276-0.224,0.5-0.5,0.5h-48c-0.276,0-0.5-0.224-0.5-0.5v-16zm8,31.5h33v41h-33v-41zm-15.5,56h64c0.276,0 0.5,0.224 0.5,0.5v184c0,0.276-0.224,0.5-0.5,0.5h-64c-0.276,0-0.5-0.224-0.5-0.5v-25.021c27.067-3.675 48-26.921 48-54.979s-20.933-51.305-48-54.979v-49.021c0-0.276 0.224-0.5 0.5-0.5zm-8,64c22.332,0 40.5,18.168 40.5,40.5 0,22.329-18.165,40.496-40.494,40.5-0.002,0-0.004,0-0.006,0s-0.004,0-0.006,0c-22.329-0.003-40.494-18.17-40.494-40.5 0-22.332 18.168-40.5 40.5-40.5zm-160.372,141.948c-1.465-31.12 9.53-60.629 30.961-83.092 20.281-21.259 47.245-33.477 76.381-34.74-1.604,5.181-2.47,10.683-2.47,16.384 0,2.984 0.244,5.911 0.699,8.769-21.629,1.705-42.123,11.479-57.05,27.403-16.715,17.832-25.047,41.143-23.461,65.637 2.966,45.808 42.521,81.691 90.052,81.691h69.76v16.5c0,4.687-3.813,8.5-8.5,8.5h-60.611c-29.596,0-57.883-10.983-79.651-30.926-21.92-20.082-34.744-47.118-36.11-76.126zm111.843,121.988c1.304,0.038 2.609,0.064 3.917,0.064h45.137c-0.011,0.166-0.025,0.331-0.025,0.5v64.5h-49v-64.5c-2.84217e-14-0.19-0.015-0.377-0.029-0.564z" fill="#A3A3A3"/>
    <path d="m283.501,199c4.687,0 8.5,3.813 8.5,8.5 0,4.142 3.358,7.5 7.5,7.5s7.5-3.358 7.5-7.5c0-12.958-10.542-23.5-23.5-23.5-4.142,0-7.5,3.358-7.5,7.5s3.358,7.5 7.5,7.5z" fill="#A3A3A3"/>
  </g>
</svg>
