<?xml version="1.0" encoding="utf-8"?>
<!DOCTYPE svg PUBLIC "-//W3C//DTD SVG 1.1//EN" "http://www.w3.org/Graphics/SVG/1.1/DTD/svg11.dtd">
<svg xmlns="http://www.w3.org/2000/svg" xmlns:xlink="http://www.w3.org/1999/xlink" width="512px" version="1.1" height="512px" viewBox="0 0 64 64" enable-background="new 0 0 64 64">
  <g>
    <path fill="#a3a3a3" d="m53.368,22.262c2.395-1.436 4.022-4.043 4.022-7.048 0-4.538-3.662-8.229-8.164-8.229-4.5,0-8.16,3.691-8.16,8.229 0,3.044 1.67,5.68 4.118,7.101-0.788,0.266-1.548,0.596-2.271,1.019-1.088-5.091-5.583-8.918-10.952-8.918-5.306,0-9.752,3.743-10.904,8.745-0.672-0.365-1.373-0.661-2.1-0.895 2.4-1.434 4.031-4.043 4.031-7.052 0-4.538-3.662-8.229-8.162-8.229s-8.162,3.691-8.162,8.229c0,3.055 1.684,5.695 4.143,7.113-7.125,2.418-10.153,10.772-10.764,15.54-0.074,0.576 0.104,1.155 0.482,1.592 0.379,0.436 0.928,0.686 1.504,0.686h17.757c-7.263,5.334-8.899,14.357-8.919,14.485-0.098,0.587 0.064,1.185 0.445,1.639 0.38,0.454 0.939,0.716 1.53,0.716h38.236c0.014-0.002 0.025-0.002 0.039,0 1.107,0 2.003-0.902 2.003-2.02 0-0.266-0.051-0.519-0.145-0.752-0.381-1.941-2.234-9.41-8.447-14.068h17.494c0.567,0 1.111-0.242 1.49-0.67 0.38-0.426 0.562-0.994 0.502-1.564-0.514-4.824-3.414-13.314-10.646-15.649zm-4.141-11.239c2.291,0 4.157,1.879 4.157,4.19 0,2.308-1.866,4.185-4.157,4.185s-4.154-1.877-4.154-4.185c-0.001-2.311 1.863-4.19 4.154-4.19zm-17.266,7.431c3.97,0 7.199,3.255 7.199,7.257s-3.229,7.258-7.199,7.258c-3.967,0-7.197-3.256-7.197-7.258s3.23-7.257 7.197-7.257zm-17.135-7.431c2.291,0 4.156,1.879 4.156,4.19 0,2.308-1.865,4.185-4.156,4.185-2.293,0-4.154-1.877-4.154-4.185 0-2.311 1.861-4.19 4.154-4.19zm.156,14.649c2.244,0 4.121,0.684 5.734,2.094 0.076,0.067 0.173,0.094 0.257,0.146 0.728,3.695 3.247,6.748 6.604,8.193h-23.077c0.98-3.658 3.71-10.433 10.482-10.433zm33.574,27.273h-33.13c1.375-4.224 5.521-12.605 16.768-12.605 11.191,0 15.105,8.409 16.362,12.605zm-13.267-16.447c0.014-0.004 0.025-0.01 0.037-0.014-0.008,0.006-0.016,0.012-0.023,0.016-0.004,7.10543e-15-0.008,7.10543e-15-0.014-0.002zm1.141-.393c-0.062,0-0.113,0.03-0.176,0.036 3.357-1.408 5.889-4.413 6.663-8.069 0.274-0.074 0.536-0.191 0.767-0.385 1.634-1.357 3.498-2.016 5.701-2.016 6.834,0 9.367,6.788 10.236,10.434h-23.191z"/>
  </g>
</svg>
