<?xml version="1.0" encoding="UTF-8" standalone="no"?>
<!-- Generator: Adobe Illustrator 19.1.0, SVG Export Plug-In . SVG Version: 6.00 Build 0)  -->

<svg
   xmlns:dc="http://purl.org/dc/elements/1.1/"
   xmlns:cc="http://creativecommons.org/ns#"
   xmlns:rdf="http://www.w3.org/1999/02/22-rdf-syntax-ns#"
   xmlns:svg="http://www.w3.org/2000/svg"
   xmlns="http://www.w3.org/2000/svg"
   xmlns:sodipodi="http://sodipodi.sourceforge.net/DTD/sodipodi-0.dtd"
   xmlns:inkscape="http://www.inkscape.org/namespaces/inkscape"
   version="1.1"
   id="Capa_1"
   x="0px"
   y="0px"
   viewBox="0 0 487.1 487.1"
   style="enable-background:new 0 0 487.1 487.1;"
   xml:space="preserve"
   width="512px"
   height="512px"
   inkscape:version="0.91 r13725"
   sodipodi:docname="icon-file-green.svg"><metadata
     id="metadata49"><rdf:RDF><cc:Work
         rdf:about=""><dc:format>image/svg+xml</dc:format><dc:type
           rdf:resource="http://purl.org/dc/dcmitype/StillImage" /></cc:Work></rdf:RDF></metadata><defs
     id="defs47" /><sodipodi:namedview
     pagecolor="#ffffff"
     bordercolor="#666666"
     borderopacity="1"
     objecttolerance="10"
     gridtolerance="10"
     guidetolerance="10"
     inkscape:pageopacity="0"
     inkscape:pageshadow="2"
     inkscape:window-width="832"
     inkscape:window-height="480"
     id="namedview45"
     showgrid="false"
     inkscape:zoom="0.4609375"
     inkscape:cx="256"
     inkscape:cy="256"
     inkscape:window-x="0"
     inkscape:window-y="23"
     inkscape:window-maximized="0"
     inkscape:current-layer="Capa_1" /><g
     id="g3"
     style="fill:#174873;fill-opacity:1"><g
       id="g5"
       style="fill:#174873;fill-opacity:1"><path
         d="M336.05,251.7h-183.3c-7.5,0-13.5,6-13.5,13.5s6,13.5,13.5,13.5h183.3c7.5,0,13.5-6,13.5-13.5S343.55,251.7,336.05,251.7z    "
         fill="#68b78c"
         id="path7"
         style="fill:#174873;fill-opacity:1" /><path
         d="M151.05,203.4h183.3c7.5,0,13.5-6,13.5-13.5s-6-13.5-13.5-13.5h-183.3c-7.5,0-13.5,6-13.5,13.5S143.55,203.4,151.05,203.4    z"
         fill="#68b78c"
         id="path9"
         style="fill:#174873;fill-opacity:1" /><path
         d="M336.05,326.9h-183.3c-7.5,0-13.5,6-13.5,13.5s6,13.5,13.5,13.5h183.3c7.5,0,13.5-6,13.5-13.5S343.55,326.9,336.05,326.9z    "
         fill="#68b78c"
         id="path11"
         style="fill:#174873;fill-opacity:1" /><path
         d="M433.05,110.4l-111-106.6c-2.5-2.4-5.9-3.8-9.4-3.8h-203.1c-32.9,0-59.7,26.8-59.7,59.7v367.7c0,32.9,26.8,59.7,59.7,59.7    h268c32.9,0,59.7-26.8,59.7-59.7V120.2C437.15,116.5,435.65,113,433.05,110.4z M326.25,45.2l63.9,61.5h-31.3    c-18,0-32.7-14.6-32.7-32.7V45.2H326.25z M410.15,427.4c0,18-14.6,32.7-32.7,32.7h-267.9c-18,0-32.7-14.6-32.7-32.7V59.6    c0-18,14.6-32.7,32.7-32.7h189.6v47c0,32.9,26.8,59.7,59.7,59.7h51.3V427.4z"
         fill="#68b78c"
         id="path13"
         style="fill:#174873;fill-opacity:1" /></g></g><g
     id="g15" /><g
     id="g17" /><g
     id="g19" /><g
     id="g21" /><g
     id="g23" /><g
     id="g25" /><g
     id="g27" /><g
     id="g29" /><g
     id="g31" /><g
     id="g33" /><g
     id="g35" /><g
     id="g37" /><g
     id="g39" /><g
     id="g41" /><g
     id="g43" /></svg>