<?xml version="1.0" encoding="UTF-8" standalone="no"?>
<!-- Generator: Adobe Illustrator 19.1.0, SVG Export Plug-In . SVG Version: 6.00 Build 0)  -->

<svg
   xmlns:dc="http://purl.org/dc/elements/1.1/"
   xmlns:cc="http://creativecommons.org/ns#"
   xmlns:rdf="http://www.w3.org/1999/02/22-rdf-syntax-ns#"
   xmlns:svg="http://www.w3.org/2000/svg"
   xmlns="http://www.w3.org/2000/svg"
   xmlns:sodipodi="http://sodipodi.sourceforge.net/DTD/sodipodi-0.dtd"
   xmlns:inkscape="http://www.inkscape.org/namespaces/inkscape"
   version="1.1"
   id="Capa_1"
   x="0px"
   y="0px"
   viewBox="0 0 481 481"
   style="enable-background:new 0 0 481 481;"
   xml:space="preserve"
   width="512px"
   height="512px"
   inkscape:version="0.91 r13725"
   sodipodi:docname="icon-play-green.svg"><metadata
     id="metadata45"><rdf:RDF><cc:Work
         rdf:about=""><dc:format>image/svg+xml</dc:format><dc:type
           rdf:resource="http://purl.org/dc/dcmitype/StillImage" /></cc:Work></rdf:RDF></metadata><defs
     id="defs43" /><sodipodi:namedview
     pagecolor="#ffffff"
     bordercolor="#666666"
     borderopacity="1"
     objecttolerance="10"
     gridtolerance="10"
     guidetolerance="10"
     inkscape:pageopacity="0"
     inkscape:pageshadow="2"
     inkscape:window-width="1420"
     inkscape:window-height="764"
     id="namedview41"
     showgrid="false"
     inkscape:zoom="0.4609375"
     inkscape:cx="-201.76271"
     inkscape:cy="256"
     inkscape:window-x="0"
     inkscape:window-y="23"
     inkscape:window-maximized="0"
     inkscape:current-layer="Capa_1" /><g
     id="g3"
     style="fill:#174873;fill-opacity:1"><g
       id="g5"
       style="fill:#174873;fill-opacity:1"><path
         d="M410.6,70.4C365.1,25,304.7,0,240.5,0S115.9,25,70.4,70.4C25,115.9,0,176.3,0,240.5s25,124.6,70.4,170.1    C115.8,456,176.2,481,240.5,481s124.6-25,170.1-70.4C456,365.2,481,304.8,481,240.5S456,115.9,410.6,70.4z M240.5,454    C122.8,454,27,358.2,27,240.5S122.8,27,240.5,27S454,122.8,454,240.5S358.2,454,240.5,454z"
         fill="#68b78c"
         id="path7"
         style="fill:#174873;fill-opacity:1" /><path
         d="M349.2,229.1l-152.6-97.9c-4.2-2.7-9.4-2.9-13.8-0.5c-4.3,2.4-7,6.9-7,11.8v195.7c0,4.9,2.7,9.5,7,11.8    c2,1.1,4.3,1.7,6.5,1.7c2.5,0,5.1-0.7,7.3-2.1l152.6-97.9c3.9-2.5,6.2-6.8,6.2-11.4S353,231.6,349.2,229.1z M202.8,313.7V167.3    l114.1,73.2L202.8,313.7z"
         fill="#68b78c"
         id="path9"
         style="fill:#174873;fill-opacity:1" /></g></g><g
     id="g11" /><g
     id="g13" /><g
     id="g15" /><g
     id="g17" /><g
     id="g19" /><g
     id="g21" /><g
     id="g23" /><g
     id="g25" /><g
     id="g27" /><g
     id="g29" /><g
     id="g31" /><g
     id="g33" /><g
     id="g35" /><g
     id="g37" /><g
     id="g39" /></svg>