<?xml version="1.0" encoding="UTF-8" standalone="no"?>
<!-- Generator: Adobe Illustrator 16.0.0, SVG Export Plug-In . SVG Version: 6.00 Build 0)  -->

<svg
   xmlns:dc="http://purl.org/dc/elements/1.1/"
   xmlns:cc="http://creativecommons.org/ns#"
   xmlns:rdf="http://www.w3.org/1999/02/22-rdf-syntax-ns#"
   xmlns:svg="http://www.w3.org/2000/svg"
   xmlns="http://www.w3.org/2000/svg"
   xmlns:sodipodi="http://sodipodi.sourceforge.net/DTD/sodipodi-0.dtd"
   xmlns:inkscape="http://www.inkscape.org/namespaces/inkscape"
   version="1.1"
   id="Livello_1"
   x="0px"
   y="0px"
   width="300px"
   height="55.16px"
   viewBox="0 0 300 55.16"
   enable-background="new 0 0 300 55.16"
   xml:space="preserve"
   inkscape:version="0.91 r13725"
   sodipodi:docname="logo-university.svg"><metadata
     id="metadata47"><rdf:RDF><cc:Work
         rdf:about=""><dc:format>image/svg+xml</dc:format><dc:type
           rdf:resource="http://purl.org/dc/dcmitype/StillImage" /><dc:title /></cc:Work></rdf:RDF></metadata><defs
     id="defs45" /><sodipodi:namedview
     pagecolor="#ffffff"
     bordercolor="#666666"
     borderopacity="1"
     objecttolerance="10"
     gridtolerance="10"
     guidetolerance="10"
     inkscape:pageopacity="0"
     inkscape:pageshadow="2"
     inkscape:window-width="1871"
     inkscape:window-height="840"
     id="namedview43"
     showgrid="false"
     showguides="true"
     inkscape:guide-bbox="true"
     inkscape:zoom="4.9866667"
     inkscape:cx="219.78609"
     inkscape:cy="27.58"
     inkscape:window-x="0"
     inkscape:window-y="23"
     inkscape:window-maximized="0"
     inkscape:current-layer="Livello_1"><sodipodi:guide
       position="100.26738,28.074866"
       orientation="0,1"
       id="guide4175" /><sodipodi:guide
       position="292.37968,15.641711"
       orientation="1,0"
       id="guide4177" /><sodipodi:guide
       position="275.33422,-0.40106952"
       orientation="1,0"
       id="guide4179" /></sodipodi:namedview><g
     enable-background="new    "
     id="g3"
     style="fill:#174873;fill-opacity:1"
     transform="translate(0,0.504)"><path
       d="m 81.494,23.366 c 0,-5.288 0,-6.263 -0.07,-7.376 -0.069,-1.183 -0.417,-1.774 -1.183,-1.948 -0.383,-0.104 -0.835,-0.139 -1.252,-0.139 -0.348,0 -0.557,-0.07 -0.557,-0.349 0,-0.208 0.278,-0.278 0.835,-0.278 1.322,0 3.514,0.104 4.523,0.104 0.87,0 2.922,-0.104 4.244,-0.104 0.452,0 0.73,0.07 0.73,0.278 0,0.278 -0.208,0.349 -0.557,0.349 -0.348,0 -0.626,0.034 -1.043,0.104 -0.939,0.175 -1.218,0.766 -1.288,1.983 -0.069,1.113 -0.069,2.088 -0.069,7.376 l 0,6.124 c 0,3.373 0,6.123 0.139,7.619 0.104,0.938 0.348,1.564 1.392,1.703 0.487,0.07 1.252,0.141 1.774,0.141 0.382,0 0.557,0.104 0.557,0.277 0,0.244 -0.278,0.348 -0.661,0.348 -2.296,0 -4.488,-0.104 -5.427,-0.104 -0.8,0 -2.992,0.104 -4.384,0.104 -0.452,0 -0.695,-0.104 -0.695,-0.348 0,-0.174 0.139,-0.277 0.557,-0.277 0.521,0 0.939,-0.07 1.252,-0.141 0.696,-0.139 0.905,-0.73 1.009,-1.738 0.174,-1.461 0.174,-4.211 0.174,-7.584 l 0,-6.124 z"
       id="path5"
       style="fill:#174873;fill-opacity:1"
       inkscape:connector-curvature="0" /><path
       d="M 100.001,16.687 C 99.201,14.773 98.609,14.39 97.357,14.042 96.835,13.903 96.278,13.903 96,13.903 c -0.313,0 -0.417,-0.104 -0.417,-0.313 0,-0.278 0.383,-0.313 0.905,-0.313 1.844,0 3.827,0.104 5.044,0.104 0.87,0 2.54,-0.104 4.279,-0.104 0.417,0 0.8,0.07 0.8,0.313 0,0.243 -0.208,0.313 -0.521,0.313 -0.557,0 -1.079,0.034 -1.357,0.243 -0.244,0.174 -0.348,0.417 -0.348,0.73 0,0.452 0.313,1.427 0.8,2.679 l 5.984,15.795 0.139,0 c 1.496,-3.828 6.019,-15.03 6.854,-17.326 0.174,-0.452 0.313,-0.975 0.313,-1.287 0,-0.278 -0.139,-0.557 -0.453,-0.661 -0.417,-0.14 -0.939,-0.174 -1.392,-0.174 -0.313,0 -0.591,-0.035 -0.591,-0.278 0,-0.278 0.313,-0.349 0.974,-0.349 1.74,0 3.201,0.104 3.653,0.104 0.591,0 2.227,-0.104 3.27,-0.104 0.452,0 0.73,0.07 0.73,0.313 0,0.243 -0.208,0.313 -0.557,0.313 -0.348,0 -1.079,0 -1.705,0.417 -0.452,0.313 -0.974,0.904 -1.914,3.131 -1.357,3.271 -2.296,5.149 -4.175,9.429 -2.227,5.079 -3.862,8.872 -4.627,10.61 -0.905,2.02 -1.113,2.576 -1.6,2.576 -0.453,0 -0.661,-0.488 -1.322,-2.123 l -8.765,-21.254 z"
       id="path7"
       style="fill:#174873;fill-opacity:1"
       inkscape:connector-curvature="0" /><path
       d="m 134.372,23.366 c 0,-5.288 0,-6.263 -0.069,-7.376 -0.07,-1.183 -0.348,-1.739 -1.496,-1.983 -0.278,-0.069 -0.87,-0.104 -1.357,-0.104 -0.383,0 -0.591,-0.07 -0.591,-0.313 0,-0.243 0.243,-0.313 0.765,-0.313 0.939,0 1.948,0.035 2.818,0.035 0.905,0.035 1.705,0.069 2.192,0.069 1.113,0 8.037,0 8.698,-0.034 0.661,-0.07 1.218,-0.14 1.496,-0.209 0.174,-0.035 0.382,-0.14 0.557,-0.14 0.174,0 0.208,0.14 0.208,0.313 0,0.243 -0.174,0.661 -0.278,2.262 -0.035,0.348 -0.104,1.878 -0.174,2.296 -0.035,0.174 -0.104,0.383 -0.348,0.383 -0.243,0 -0.313,-0.174 -0.313,-0.487 0,-0.243 -0.035,-0.835 -0.208,-1.252 -0.244,-0.627 -0.592,-1.044 -2.331,-1.253 -0.592,-0.069 -4.245,-0.14 -4.94,-0.14 -0.174,0 -0.243,0.104 -0.243,0.349 l 0,8.802 c 0,0.243 0.035,0.383 0.243,0.383 0.766,0 4.767,0 5.566,-0.07 0.835,-0.069 1.357,-0.174 1.67,-0.521 0.244,-0.278 0.383,-0.452 0.557,-0.452 0.139,0 0.244,0.069 0.244,0.278 0,0.209 -0.139,0.766 -0.278,2.54 -0.035,0.695 -0.139,2.087 -0.139,2.332 0,0.277 0,0.66 -0.313,0.66 -0.244,0 -0.313,-0.139 -0.313,-0.313 -0.035,-0.348 -0.035,-0.801 -0.14,-1.253 -0.174,-0.695 -0.661,-1.218 -1.948,-1.356 -0.661,-0.069 -4.105,-0.104 -4.94,-0.104 -0.174,0 -0.208,0.14 -0.208,0.348 l 0,2.75 c 0,1.182 -0.035,4.383 0,5.393 0.069,2.4 0.626,2.922 4.175,2.922 0.904,0 2.365,0 3.27,-0.418 0.905,-0.418 1.322,-1.148 1.565,-2.574 0.07,-0.383 0.139,-0.521 0.383,-0.521 0.278,0 0.278,0.277 0.278,0.625 0,0.801 -0.278,3.166 -0.452,3.863 -0.244,0.904 -0.557,0.904 -1.879,0.904 -2.609,0 -4.522,-0.07 -6.019,-0.105 -1.496,-0.068 -2.575,-0.104 -3.618,-0.104 -0.383,0 -1.148,0 -1.983,0.035 -0.8,0 -1.705,0.068 -2.4,0.068 -0.453,0 -0.696,-0.104 -0.696,-0.348 0,-0.174 0.14,-0.277 0.557,-0.277 0.522,0 0.939,-0.07 1.253,-0.141 0.695,-0.139 0.87,-0.904 1.009,-1.912 0.174,-1.461 0.174,-4.211 0.174,-7.41 l 0,-6.127 z"
       id="path9"
       style="fill:#174873;fill-opacity:1"
       inkscape:connector-curvature="0" /><path
       d="m 162.341,23.366 c 0,-5.288 0,-6.263 -0.069,-7.376 -0.07,-1.183 -0.348,-1.739 -1.496,-1.983 -0.278,-0.069 -0.869,-0.104 -1.357,-0.104 -0.383,0 -0.591,-0.07 -0.591,-0.313 0,-0.243 0.243,-0.313 0.765,-0.313 1.844,0 4.036,0.104 4.768,0.104 1.182,0 3.826,-0.104 4.904,-0.104 2.191,0 4.523,0.209 6.402,1.496 0.974,0.661 2.365,2.436 2.365,4.767 0,2.574 -1.078,4.94 -4.592,7.793 3.096,3.896 5.496,6.994 7.549,9.15 1.948,2.018 3.375,2.262 3.896,2.365 0.383,0.07 0.695,0.105 0.975,0.105 0.277,0 0.417,0.104 0.417,0.277 0,0.279 -0.243,0.348 -0.661,0.348 l -3.305,0 c -1.949,0 -2.818,-0.174 -3.723,-0.66 -1.496,-0.801 -2.818,-2.436 -4.766,-5.115 -1.393,-1.912 -2.992,-4.279 -3.445,-4.801 -0.174,-0.209 -0.383,-0.242 -0.626,-0.242 l -3.026,-0.07 c -0.174,0 -0.279,0.07 -0.279,0.277 l 0,0.488 c 0,3.234 0,5.984 0.175,7.445 0.104,1.008 0.313,1.773 1.356,1.912 0.521,0.07 1.287,0.141 1.705,0.141 0.278,0 0.418,0.104 0.418,0.277 0,0.244 -0.244,0.348 -0.696,0.348 -2.019,0 -4.593,-0.104 -5.114,-0.104 -0.661,0 -2.854,0.104 -4.244,0.104 -0.453,0 -0.695,-0.104 -0.695,-0.348 0,-0.174 0.139,-0.277 0.557,-0.277 0.521,0 0.938,-0.07 1.252,-0.141 0.695,-0.139 0.869,-0.904 1.009,-1.912 0.174,-1.461 0.174,-4.211 0.174,-7.41 l 0,-6.124 z m 4.104,2.748 c 0,0.383 0.07,0.521 0.314,0.626 0.73,0.244 1.773,0.349 2.644,0.349 1.392,0 1.844,-0.14 2.47,-0.592 1.044,-0.766 2.053,-2.366 2.053,-5.219 0,-4.94 -3.27,-6.366 -5.322,-6.366 -0.87,0 -1.496,0.034 -1.844,0.139 -0.244,0.069 -0.314,0.209 -0.314,0.487 l 0,10.576 z"
       id="path11"
       style="fill:#174873;fill-opacity:1"
       inkscape:connector-curvature="0" /><path
       d="m 192.154,39.16 c -0.557,-0.242 -0.662,-0.416 -0.662,-1.182 0,-1.914 0.141,-4.002 0.175,-4.559 0.034,-0.521 0.14,-0.904 0.417,-0.904 0.313,0 0.348,0.314 0.348,0.592 0,0.453 0.14,1.184 0.314,1.775 0.765,2.574 2.817,3.514 4.975,3.514 3.131,0 4.662,-2.123 4.662,-3.967 0,-1.705 -0.522,-3.305 -3.41,-5.566 l -1.6,-1.252 c -3.828,-2.992 -5.149,-5.428 -5.149,-8.245 0,-3.827 3.2,-6.575 8.036,-6.575 2.262,0 3.723,0.348 4.627,0.591 0.313,0.069 0.487,0.174 0.487,0.418 0,0.452 -0.14,1.461 -0.14,4.175 0,0.766 -0.104,1.043 -0.383,1.043 -0.242,0 -0.348,-0.208 -0.348,-0.626 0,-0.313 -0.174,-1.392 -0.904,-2.296 -0.521,-0.661 -1.531,-1.705 -3.792,-1.705 -2.574,0 -4.14,1.496 -4.14,3.584 0,1.6 0.8,2.817 3.688,5.01 l 0.975,0.73 c 4.209,3.166 5.705,5.567 5.705,8.872 0,2.018 -0.766,4.418 -3.27,6.053 -1.74,1.113 -3.688,1.428 -5.532,1.428 -2.018,-0.002 -3.583,-0.246 -5.079,-0.908 z"
       id="path13"
       style="fill:#174873;fill-opacity:1"
       inkscape:connector-curvature="0" /><path
       d="m 220.297,23.366 c 0,-5.288 0,-6.263 -0.07,-7.376 -0.068,-1.183 -0.416,-1.774 -1.182,-1.948 -0.383,-0.104 -0.836,-0.139 -1.253,-0.139 -0.349,0 -0.557,-0.07 -0.557,-0.349 0,-0.208 0.278,-0.278 0.835,-0.278 1.322,0 3.514,0.104 4.523,0.104 0.869,0 2.922,-0.104 4.244,-0.104 0.451,0 0.73,0.07 0.73,0.278 0,0.278 -0.209,0.349 -0.557,0.349 -0.348,0 -0.627,0.034 -1.045,0.104 -0.938,0.175 -1.217,0.766 -1.287,1.983 -0.068,1.113 -0.068,2.088 -0.068,7.376 l 0,6.124 c 0,3.373 0,6.123 0.139,7.619 0.104,0.938 0.348,1.564 1.393,1.703 0.486,0.07 1.252,0.141 1.773,0.141 0.383,0 0.557,0.104 0.557,0.277 0,0.244 -0.279,0.348 -0.66,0.348 -2.297,0 -4.488,-0.104 -5.428,-0.104 -0.801,0 -2.992,0.104 -4.385,0.104 -0.451,0 -0.695,-0.104 -0.695,-0.348 0,-0.174 0.139,-0.277 0.557,-0.277 0.521,0 0.939,-0.07 1.252,-0.141 0.697,-0.139 0.905,-0.73 1.01,-1.738 0.174,-1.461 0.174,-4.211 0.174,-7.584 l 0,-6.124 z"
       id="path15"
       style="fill:#174873;fill-opacity:1"
       inkscape:connector-curvature="0" /><path
       d="m 246.631,15.225 -5.184,0.14 c -2.018,0.069 -2.854,0.243 -3.375,1.009 -0.348,0.521 -0.521,0.939 -0.592,1.218 -0.068,0.278 -0.174,0.417 -0.383,0.417 -0.242,0 -0.313,-0.174 -0.313,-0.557 0,-0.557 0.662,-3.722 0.73,-4.001 0.105,-0.452 0.209,-0.66 0.418,-0.66 0.277,0 0.627,0.348 1.496,0.417 1.008,0.104 2.33,0.174 3.479,0.174 l 13.777,0 c 1.113,0 1.879,-0.104 2.4,-0.174 0.521,-0.104 0.801,-0.174 0.939,-0.174 0.244,0 0.277,0.209 0.277,0.73 0,0.73 -0.104,3.131 -0.104,4.036 -0.035,0.348 -0.104,0.557 -0.313,0.557 -0.279,0 -0.348,-0.174 -0.383,-0.696 l -0.035,-0.383 c -0.07,-0.904 -1.01,-1.878 -4.105,-1.948 l -4.383,-0.104 0,14.264 c 0,3.199 0,5.949 0.174,7.443 0.104,0.975 0.313,1.74 1.355,1.879 0.488,0.07 1.254,0.141 1.775,0.141 0.383,0 0.557,0.104 0.557,0.277 0,0.244 -0.279,0.348 -0.662,0.348 -2.295,0 -4.486,-0.104 -5.461,-0.104 -0.801,0 -2.992,0.104 -4.385,0.104 -0.451,0 -0.695,-0.104 -0.695,-0.348 0,-0.174 0.139,-0.277 0.557,-0.277 0.521,0 0.939,-0.07 1.252,-0.141 0.697,-0.139 0.906,-0.904 1.01,-1.912 0.174,-1.461 0.174,-4.211 0.174,-7.41 l 0,-14.265 z"
       id="path17"
       style="fill:#174873;fill-opacity:1"
       inkscape:connector-curvature="0" /><path
       d="m 276.758,30.568 c 0,-1.879 -0.35,-2.645 -0.801,-3.654 -0.244,-0.557 -4.906,-8.21 -6.123,-10.02 -0.869,-1.287 -1.74,-2.156 -2.4,-2.539 -0.453,-0.244 -1.045,-0.452 -1.461,-0.452 -0.279,0 -0.523,-0.07 -0.523,-0.313 0,-0.209 0.244,-0.313 0.662,-0.313 0.627,0 3.234,0.104 4.383,0.104 0.73,0 2.158,-0.104 3.723,-0.104 0.348,0 0.521,0.104 0.521,0.313 0,0.209 -0.242,0.243 -0.764,0.383 -0.314,0.069 -0.488,0.348 -0.488,0.626 0,0.278 0.174,0.696 0.418,1.183 0.486,1.044 5.357,9.429 5.914,10.402 0.348,-0.835 4.732,-8.488 5.219,-9.567 0.348,-0.765 0.486,-1.356 0.486,-1.809 0,-0.348 -0.139,-0.73 -0.73,-0.87 -0.313,-0.069 -0.625,-0.139 -0.625,-0.348 0,-0.243 0.174,-0.313 0.59,-0.313 1.148,0 2.262,0.104 3.271,0.104 0.766,0 3.061,-0.104 3.723,-0.104 0.383,0 0.625,0.07 0.625,0.278 0,0.244 -0.277,0.349 -0.66,0.349 -0.348,0 -1.01,0.139 -1.531,0.417 -0.73,0.348 -1.113,0.766 -1.879,1.705 -1.148,1.392 -6.018,9.567 -6.645,11.063 -0.521,1.252 -0.521,2.331 -0.521,3.479 l 0,2.852 c 0,0.557 0,2.02 0.104,3.48 0.07,1.008 0.383,1.773 1.428,1.912 0.486,0.07 1.252,0.141 1.738,0.141 0.383,0 0.557,0.104 0.557,0.277 0,0.244 -0.277,0.348 -0.73,0.348 -2.191,0 -4.383,-0.104 -5.322,-0.104 -0.869,0 -3.063,0.104 -4.35,0.104 -0.486,0 -0.766,-0.068 -0.766,-0.348 0,-0.174 0.176,-0.277 0.557,-0.277 0.488,0 0.906,-0.07 1.219,-0.141 0.695,-0.139 1.008,-0.904 1.078,-1.912 0.105,-1.461 0.105,-2.924 0.105,-3.48 l 0,-2.852 z"
       id="path19"
       style="fill:#174873;fill-opacity:1"
       inkscape:connector-curvature="0" /></g><g
     id="g21"
     style="fill:#174873;fill-opacity:1"><path
       fill="#1B3865"
       d="M73,53.714c0,0-4.295,3.268-17.504-1.979C42.285,46.494,36,52.132,36,53.171v-0.123V3.637   c0-1.039,6.358-6.682,19.569-1.435C68.778,7.446,73,4.191,73,4.191V53.714z"
       id="path23"
       style="fill:#174873;fill-opacity:1" /><path
       fill="#1B3865"
       d="M0,53.714c0,0,3.295,3.268,16.503-1.979C29.715,46.494,35,52.132,35,53.171v-0.123V3.637   c0-1.039-5.358-6.682-18.57-1.435C3.222,7.446,0,4.191,0,4.191V53.714z"
       id="path25"
       style="fill:#174873;fill-opacity:1" /></g><g
     enable-background="new    "
     id="g27"
     transform="translate(0,1.896)"><path
       d="m 6.299,21.976 c 0,-5.288 0,-6.263 -0.069,-7.376 C 6.16,13.417 5.882,12.861 4.734,12.617 4.456,12.548 3.864,12.513 3.377,12.513 c -0.383,0 -0.591,-0.07 -0.591,-0.313 0,-0.243 0.244,-0.313 0.765,-0.313 1.844,0 4.036,0.104 5.08,0.104 0.835,0 3.027,-0.104 4.279,-0.104 0.522,0 0.765,0.07 0.765,0.313 0,0.243 -0.208,0.313 -0.557,0.313 -0.383,0 -0.591,0.034 -1.009,0.104 -0.939,0.175 -1.218,0.766 -1.287,1.983 -0.07,1.113 -0.07,2.088 -0.07,7.376 l 0,4.87 c 0,5.044 1.009,7.167 2.714,8.558 1.565,1.287 3.166,1.428 4.349,1.428 1.531,0 3.41,-0.488 4.801,-1.879 1.913,-1.914 2.018,-5.045 2.018,-8.628 l 0,-4.349 c 0,-5.288 0,-6.263 -0.069,-7.376 -0.07,-1.183 -0.348,-1.739 -1.496,-1.983 -0.278,-0.069 -0.87,-0.104 -1.252,-0.104 -0.383,0 -0.591,-0.07 -0.591,-0.313 0,-0.243 0.243,-0.313 0.73,-0.313 1.774,0 3.966,0.104 4.001,0.104 0.417,0 2.609,-0.104 3.966,-0.104 0.487,0 0.73,0.07 0.73,0.313 0,0.243 -0.208,0.313 -0.626,0.313 -0.383,0 -0.592,0.034 -1.009,0.104 -0.939,0.175 -1.218,0.766 -1.288,1.983 -0.069,1.113 -0.069,2.088 -0.069,7.376 l 0,3.723 c 0,3.862 -0.383,7.967 -3.305,10.471 -2.47,2.123 -4.975,2.506 -7.236,2.506 -1.844,0 -5.184,-0.105 -7.724,-2.4 C 7.622,34.674 6.3,32.1 6.3,27.056 l 0,-5.08 z"
       id="path29"
       inkscape:connector-curvature="0"
       style="fill:#ffffff" /><path
       d="m 45.366,33.457 c 0.069,2.713 0.522,3.617 1.218,3.861 0.591,0.209 1.252,0.244 1.809,0.244 0.382,0 0.591,0.068 0.591,0.277 0,0.279 -0.313,0.348 -0.8,0.348 -2.261,0 -3.653,-0.104 -4.314,-0.104 -0.313,0 -1.948,0.104 -3.757,0.104 -0.452,0 -0.765,-0.035 -0.765,-0.348 0,-0.209 0.208,-0.277 0.557,-0.277 0.452,0 1.078,-0.035 1.565,-0.174 0.904,-0.279 1.044,-1.289 1.079,-4.314 l 0.313,-20.492 c 0,-0.696 0.104,-1.183 0.452,-1.183 0.383,0 0.696,0.452 1.287,1.078 0.418,0.452 5.706,6.019 10.785,11.063 2.366,2.365 7.063,7.375 7.654,7.931 l 0.174,0 -0.348,-15.62 c -0.035,-2.123 -0.348,-2.783 -1.183,-3.132 -0.521,-0.208 -1.356,-0.208 -1.844,-0.208 -0.417,0 -0.557,-0.104 -0.557,-0.313 0,-0.278 0.383,-0.313 0.904,-0.313 1.81,0 3.479,0.104 4.21,0.104 0.383,0 1.705,-0.104 3.409,-0.104 0.452,0 0.8,0.035 0.8,0.313 0,0.209 -0.208,0.313 -0.626,0.313 -0.348,0 -0.626,0 -1.043,0.104 -0.974,0.279 -1.252,1.01 -1.287,2.958 l -0.383,21.953 c 0,0.766 -0.139,1.078 -0.452,1.078 -0.383,0 -0.8,-0.383 -1.183,-0.766 C 61.44,35.75 56.986,31.193 53.368,27.61 49.576,23.852 45.714,19.608 45.088,18.947 l -0.104,0 0.382,14.51 z"
       id="path31"
       inkscape:connector-curvature="0"
       style="fill:#ffffff" /></g><rect
     x="257.55899"
     y="45.791"
     width="35.401001"
     height="9.3690004"
     id="rect33"
     style="fill:#90cbde;fill-opacity:1" /><g
     enable-background="new    "
     id="g35"
     transform="translate(-5.1,0)"><path
       d="m 269.433,51.064 c 0,0.891 0,1.371 0.146,1.496 0.118,0.104 0.299,0.152 0.842,0.152 0.368,0 0.64,-0.006 0.813,-0.195 0.084,-0.09 0.168,-0.285 0.182,-0.416 0.007,-0.063 0.021,-0.105 0.076,-0.105 0.049,0 0.056,0.035 0.056,0.119 0,0.076 -0.049,0.598 -0.104,0.799 -0.041,0.154 -0.076,0.189 -0.438,0.189 -0.502,0 -0.863,-0.016 -1.177,-0.021 -0.313,-0.014 -0.563,-0.021 -0.849,-0.021 -0.076,0 -0.229,0 -0.396,0.008 -0.16,0 -0.341,0.014 -0.48,0.014 -0.09,0 -0.139,-0.021 -0.139,-0.07 0,-0.035 0.027,-0.055 0.111,-0.055 0.104,0 0.188,-0.014 0.25,-0.027 0.14,-0.029 0.174,-0.182 0.202,-0.383 0.034,-0.293 0.034,-0.842 0.034,-1.482 l 0,-1.225 c 0,-1.059 0,-1.252 -0.014,-1.475 -0.014,-0.238 -0.069,-0.35 -0.299,-0.398 -0.056,-0.014 -0.139,-0.02 -0.229,-0.02 -0.077,0 -0.118,-0.014 -0.118,-0.063 0,-0.049 0.049,-0.063 0.152,-0.063 0.327,0 0.766,0.02 0.953,0.02 0.168,0 0.676,-0.02 0.947,-0.02 0.097,0 0.146,0.014 0.146,0.063 0,0.049 -0.042,0.063 -0.125,0.063 -0.077,0 -0.188,0.006 -0.271,0.02 -0.188,0.035 -0.243,0.154 -0.257,0.398 -0.015,0.223 -0.015,0.416 -0.015,1.475 l 0,1.223 z"
       id="path37"
       inkscape:connector-curvature="0"
       style="fill:#ffffff" /><path
       d="m 279.188,51.306 c -0.035,0 -0.049,0.016 -0.063,0.057 l -0.377,0.953 c -0.068,0.174 -0.104,0.342 -0.104,0.424 0,0.125 0.063,0.217 0.278,0.217 l 0.104,0 c 0.083,0 0.104,0.014 0.104,0.055 0,0.057 -0.041,0.07 -0.117,0.07 -0.223,0 -0.522,-0.021 -0.738,-0.021 -0.076,0 -0.459,0.021 -0.82,0.021 -0.091,0 -0.133,-0.014 -0.133,-0.07 0,-0.041 0.027,-0.055 0.084,-0.055 0.063,0 0.16,-0.008 0.215,-0.014 0.32,-0.043 0.453,-0.279 0.592,-0.627 l 1.746,-4.314 c 0.084,-0.201 0.125,-0.277 0.195,-0.277 0.063,0 0.104,0.063 0.174,0.223 0.167,0.383 1.28,3.166 1.726,4.223 0.265,0.627 0.466,0.725 0.612,0.76 0.104,0.02 0.209,0.027 0.292,0.027 0.056,0 0.091,0.006 0.091,0.055 0,0.057 -0.063,0.07 -0.32,0.07 -0.25,0 -0.758,0 -1.314,-0.014 -0.126,-0.008 -0.209,-0.008 -0.209,-0.057 0,-0.041 0.027,-0.055 0.098,-0.063 0.049,-0.014 0.097,-0.076 0.063,-0.16 l -0.557,-1.434 c -0.014,-0.033 -0.035,-0.049 -0.07,-0.049 l -1.552,0 z m 1.418,-0.348 c 0.034,0 0.042,-0.02 0.034,-0.041 l -0.625,-1.711 c -0.008,-0.029 -0.015,-0.063 -0.035,-0.063 -0.021,0 -0.035,0.033 -0.042,0.063 l -0.64,1.703 c -0.008,0.029 0,0.049 0.027,0.049 l 1.281,0 z"
       id="path39"
       inkscape:connector-curvature="0"
       style="fill:#ffffff" /><path
       d="m 289.776,49.839 c 0,-1.059 0,-1.252 -0.014,-1.475 -0.015,-0.238 -0.069,-0.35 -0.3,-0.398 -0.055,-0.014 -0.174,-0.02 -0.271,-0.02 -0.076,0 -0.117,-0.014 -0.117,-0.063 0,-0.049 0.048,-0.063 0.152,-0.063 0.369,0 0.807,0.02 0.946,0.02 0.341,0 0.612,-0.02 0.849,-0.02 1.26,0 1.482,0.674 1.482,1.043 0,0.57 -0.327,0.912 -0.71,1.217 0.571,0.195 1.267,0.689 1.267,1.504 0,0.744 -0.578,1.518 -1.857,1.518 -0.084,0 -0.285,-0.016 -0.487,-0.021 -0.209,-0.014 -0.417,-0.021 -0.522,-0.021 -0.076,0 -0.229,0 -0.396,0.008 -0.16,0 -0.341,0.014 -0.479,0.014 -0.091,0 -0.14,-0.021 -0.14,-0.07 0,-0.035 0.028,-0.055 0.111,-0.055 0.104,0 0.188,-0.014 0.251,-0.027 0.139,-0.029 0.174,-0.182 0.202,-0.383 0.034,-0.293 0.034,-0.842 0.034,-1.482 l 0,-1.226 z m 0.835,0.118 c 0,0.057 0.021,0.07 0.049,0.078 0.063,0.014 0.167,0.02 0.327,0.02 0.229,0 0.382,-0.027 0.501,-0.131 0.181,-0.146 0.285,-0.398 0.285,-0.738 0,-0.467 -0.271,-1.078 -0.87,-1.078 -0.097,0 -0.159,0 -0.229,0.014 -0.049,0.014 -0.063,0.041 -0.063,0.117 l 0,1.718 z m 0.918,0.556 c -0.146,-0.104 -0.306,-0.152 -0.577,-0.166 -0.125,-0.008 -0.194,-0.008 -0.299,-0.008 -0.028,0 -0.042,0.014 -0.042,0.049 l 0,1.65 c 0,0.459 0.021,0.576 0.244,0.668 0.188,0.076 0.348,0.082 0.508,0.082 0.313,0 0.842,-0.166 0.842,-0.891 0,-0.431 -0.146,-1.015 -0.676,-1.384 z"
       id="path41"
       inkscape:connector-curvature="0"
       style="fill:#ffffff" /></g></svg>